<?xml version="1.0" encoding="UTF-8"?>
<svg version="1.1" xmlns="http://www.w3.org/2000/svg" width="500" height="500">
<path d="M0 0 C0.95003906 0.19867676 1.90007812 0.39735352 2.87890625 0.60205078 C17.44184212 3.73777971 31.3129352 8.13447425 45 14 C45.91072266 14.38752441 46.82144531 14.77504883 47.75976562 15.17431641 C66.68221696 23.36683302 84.66944901 33.91896132 99.83349609 47.99072266 C101.78506037 49.80065887 103.77659914 51.53630754 105.8125 53.25 C115.42758349 61.65833212 124.22629186 70.86428054 132 81 C132.6290625 81.81210938 133.258125 82.62421875 133.90625 83.4609375 C136.00975924 86.26274285 138.01636205 89.11185109 140 92 C140.44214844 92.64372559 140.88429688 93.28745117 141.33984375 93.95068359 C173.66987616 141.58053147 184.27248197 201.284981 174 257.7265625 C168.40761849 286.22335195 157.60763345 314.07752757 141 338 C139.96939453 339.49660156 139.96939453 339.49660156 138.91796875 341.0234375 C132.51658335 350.03840628 125.64598549 358.60381464 117.69921875 366.30078125 C115.86333496 368.06735887 115.86333496 368.06735887 114 370.5625 C111.7460898 373.30945306 109.2957536 375.48253052 106.59375 377.78125 C104.54957833 379.52987878 102.53599371 381.30071414 100.53125 383.09375 C94.22440966 388.70380984 88.03947691 394.0089685 80.76171875 398.34375 C78.8108936 399.51369323 76.89925217 400.75018201 75.01953125 402.03125 C28.71613187 433.4533896 -31.46425178 442.4357977 -85.87890625 432.2890625 C-116.30016434 426.15327415 -144.70007881 413.90118339 -170 396 C-170.74121094 395.48050781 -171.48242188 394.96101563 -172.24609375 394.42578125 C-178.24881139 390.07037905 -183.83828184 385.16010739 -189.45751953 380.32666016 C-190.83159695 379.14484048 -192.21039631 377.96851596 -193.58984375 376.79296875 C-198.52498687 372.51584472 -202.79765854 367.98721457 -207 363 C-207.93825825 361.93326939 -208.8785316 360.86830936 -209.8203125 359.8046875 C-216.20345043 352.55452862 -221.82941798 345.18063687 -227 337 C-227.72832031 335.91203125 -228.45664063 334.8240625 -229.20703125 333.703125 C-260.26417031 287.22034258 -270.5974824 227.17294227 -259.96484375 172.4609375 C-256.13112171 154.05429942 -249.99229877 136.98013651 -242 120 C-241.71012207 119.37109863 -241.42024414 118.74219727 -241.12158203 118.09423828 C-236.63916459 108.39934242 -231.10120509 99.72136986 -225 91 C-224.02933594 89.58267578 -224.02933594 89.58267578 -223.0390625 88.13671875 C-211.08842321 71.1184033 -196.37663633 55.77681844 -180 43 C-179.31164062 42.4328125 -178.62328125 41.865625 -177.9140625 41.28125 C-148.45841673 17.35559137 -110.42117661 2.78520442 -73 -2 C-72.32614258 -2.0942627 -71.65228516 -2.18852539 -70.95800781 -2.28564453 C-48.17849959 -5.06230068 -22.42540935 -4.792527 0 0 Z " fill="#4860DD" transform="translate(293,34)"/>
<path d="M0 0 C0.95390625 -0.00644531 1.9078125 -0.01289063 2.890625 -0.01953125 C3.87546875 -0.00019531 4.8603125 0.01914063 5.875 0.0390625 C7.35226563 0.01005859 7.35226563 0.01005859 8.859375 -0.01953125 C10.29023438 -0.00986328 10.29023438 -0.00986328 11.75 0 C12.61367187 0.00563965 13.47734375 0.0112793 14.3671875 0.01708984 C18.07324003 0.9731879 19.4917968 2.69889639 21.875 5.6640625 C22.36785944 8.55720577 22.55272227 10.8609333 22.50991821 13.74853516 C22.51771817 14.55782282 22.52551812 15.36711048 22.53355443 16.20092201 C22.55348501 18.91045391 22.5377063 21.6185829 22.52197266 24.328125 C22.52874832 26.27147237 22.53765116 28.21481332 22.54852295 30.15814209 C22.57132887 35.43503289 22.56247448 40.71143525 22.54662752 45.98833466 C22.53397531 51.50867537 22.54570675 57.02897406 22.55355835 62.54931641 C22.56265687 71.82006342 22.5506616 81.09061133 22.52685547 90.36132812 C22.49964391 101.08206196 22.50845792 111.80232037 22.5359875 122.52304268 C22.5586717 131.7248854 22.56188198 140.92658493 22.54879415 150.12844658 C22.54099589 155.6255256 22.53996846 161.12238111 22.55647659 166.6194458 C22.57091197 171.78735884 22.5609164 176.95465847 22.53200531 182.12250519 C22.52538955 184.01999136 22.52730052 185.91752909 22.53831863 187.81499481 C22.5519666 190.4038918 22.53486891 192.99081871 22.50991821 195.57958984 C22.52107182 196.3320228 22.53222543 197.08445576 22.54371703 197.85968971 C22.46978587 201.80940269 21.99910357 203.50965364 19.49205589 206.62890625 C16.60313677 208.87547723 15.35299273 209.304598 11.75 209.328125 C10.31914062 209.33779297 10.31914062 209.33779297 8.859375 209.34765625 C7.87453125 209.32832031 6.8896875 209.30898438 5.875 209.2890625 C4.89015625 209.30839844 3.9053125 209.32773437 2.890625 209.34765625 C1.93671875 209.34121094 0.9828125 209.33476562 0 209.328125 C-0.86367187 209.32248535 -1.72734375 209.3168457 -2.6171875 209.31103516 C-6.32324003 208.3549371 -7.7417968 206.62922861 -10.125 203.6640625 C-10.61785944 200.77091923 -10.80272227 198.4671917 -10.75991821 195.57958984 C-10.76771817 194.77030218 -10.77551812 193.96101452 -10.78355443 193.12720299 C-10.80348501 190.41767109 -10.7877063 187.7095421 -10.77197266 185 C-10.77874832 183.05665263 -10.78765116 181.11331168 -10.79852295 179.16998291 C-10.82132887 173.89309211 -10.81247448 168.61668975 -10.79662752 163.33979034 C-10.78397531 157.81944963 -10.79570675 152.29915094 -10.80355835 146.77880859 C-10.81265687 137.50806158 -10.8006616 128.23751367 -10.77685547 118.96679688 C-10.74964391 108.24606304 -10.75845792 97.52580463 -10.7859875 86.80508232 C-10.8086717 77.6032396 -10.81188198 68.40154007 -10.79879415 59.19967842 C-10.79099589 53.7025994 -10.78996846 48.20574389 -10.80647659 42.7086792 C-10.82091197 37.54076616 -10.8109164 32.37346653 -10.78200531 27.20561981 C-10.77538955 25.30813364 -10.77730052 23.41059591 -10.78831863 21.51313019 C-10.8019666 18.9242332 -10.78486891 16.33730629 -10.75991821 13.74853516 C-10.77107182 12.9961022 -10.78222543 12.24366924 -10.79371703 11.46843529 C-10.71978587 7.51872231 -10.24910357 5.81847136 -7.74205589 2.69921875 C-4.85313677 0.45264777 -3.60299273 0.023527 0 0 Z " fill="#FDFEFE" transform="translate(167.125,142.3359375)"/>
<path d="M0 0 C1.41249023 -0.04930664 1.41249023 -0.04930664 2.85351562 -0.09960938 C4.2234668 -0.11024414 4.2234668 -0.11024414 5.62109375 -0.12109375 C6.86330688 -0.14127563 6.86330688 -0.14127563 8.13061523 -0.16186523 C11.80414444 0.74351718 13.20969604 2.51304247 15.5625 5.4375 C16.05535944 8.33064327 16.24022227 10.6343708 16.19741821 13.52197266 C16.20521817 14.33126032 16.21301812 15.14054798 16.22105443 15.97435951 C16.24098501 18.68389141 16.2252063 21.3920204 16.20947266 24.1015625 C16.21624832 26.04490987 16.22515116 27.98825082 16.23602295 29.93157959 C16.25882887 35.20847039 16.24997448 40.48487275 16.23412752 45.76177216 C16.22147531 51.28211287 16.23320675 56.80241156 16.24105835 62.32275391 C16.25015687 71.59350092 16.2381616 80.86404883 16.21435547 90.13476562 C16.18714391 100.85549946 16.19595792 111.57575787 16.2234875 122.29648018 C16.2461717 131.4983229 16.24938198 140.70002243 16.23629415 149.90188408 C16.22849589 155.3989631 16.22746846 160.89581861 16.24397659 166.3928833 C16.25841197 171.56079634 16.2484164 176.72809597 16.21950531 181.89594269 C16.21288955 183.79342886 16.21480052 185.69096659 16.22581863 187.58843231 C16.2394666 190.1773293 16.22236891 192.76425621 16.19741821 195.35302734 C16.20857182 196.1054603 16.21972543 196.85789326 16.23121703 197.63312721 C16.15729105 201.58256356 15.68571393 203.28403158 13.18054771 206.40432739 C10.26645303 208.66740971 9.03413997 209.06084515 5.40234375 209.03125 C4.44392578 209.02867187 3.48550781 209.02609375 2.49804688 209.0234375 C1.50869141 208.99507812 0.51933594 208.96671875 -0.5 208.9375 C-1.49322266 208.94007813 -2.48644531 208.94265625 -3.50976562 208.9453125 C-11.85765044 208.83288307 -11.85765044 208.83288307 -15.4375 205.4375 C-16.65193869 201.79418394 -16.57903196 198.4554796 -16.57121277 194.66273499 C-16.57347833 193.86261771 -16.57574388 193.06250044 -16.57807809 192.23813719 C-16.58442508 189.54814788 -16.58358828 186.85820887 -16.58276367 184.16821289 C-16.58575471 182.24324986 -16.5891571 180.31828744 -16.59294128 178.39332581 C-16.60179064 173.15786146 -16.60411978 167.92241344 -16.60475707 162.68694234 C-16.60570542 158.32044534 -16.60938283 153.95395217 -16.61292917 149.58745664 C-16.6210771 139.28852707 -16.62351307 128.98960625 -16.62280273 118.69067383 C-16.62220168 108.05644463 -16.63275827 97.42226612 -16.6485464 86.78804976 C-16.66160814 77.66613146 -16.66698721 68.54422976 -16.66634732 59.42230219 C-16.66609196 53.97055846 -16.66896453 48.51885976 -16.67952538 43.06712532 C-16.68918353 37.94129963 -16.68930127 32.81556225 -16.68200874 27.68973351 C-16.68096009 25.80633033 -16.68334235 23.92292172 -16.6893692 22.03952789 C-16.69705245 19.47266325 -16.69246878 16.90610637 -16.68473816 14.33924866 C-16.68988172 13.59032052 -16.69502529 12.84139238 -16.70032471 12.06976944 C-16.67572211 8.38451281 -16.57662654 5.51952827 -14.4375 2.4375 C-10.04803069 -0.51407009 -5.099951 0.03128804 0 0 Z " fill="#FAFCFE" transform="translate(327.4375,142.5625)"/>
<path d="M0 0 C1.14919922 0.01095703 2.29839844 0.02191406 3.48242188 0.03320312 C4.62775391 0.00935547 5.77308594 -0.01449219 6.953125 -0.0390625 C8.05462891 -0.03712891 9.15613281 -0.03519531 10.29101562 -0.03320312 C11.2983374 -0.03392822 12.30565918 -0.03465332 13.34350586 -0.03540039 C17.08781563 0.83934346 17.96957541 2.41324739 20.04492188 5.59570312 C20.54828644 8.57081604 20.54828644 8.57081604 20.55285645 11.93383789 C20.56413574 13.21243683 20.57541504 14.49103577 20.58703613 15.80838013 C20.57925958 17.21795882 20.57106694 18.62753527 20.5625 20.03710938 C20.56792241 21.52725915 20.57504574 23.01740356 20.58374023 24.50753784 C20.60196266 28.54890483 20.59491071 32.58986298 20.58222389 36.63123703 C20.57209055 40.86232345 20.5814905 45.09337508 20.58776855 49.32446289 C20.595044 56.42958861 20.58546001 63.53454798 20.56640625 70.63964844 C20.54463763 78.85190316 20.55168908 87.06376065 20.57371187 95.27600574 C20.59186886 102.32923944 20.59442276 109.38235362 20.5839572 116.43560314 C20.57772388 120.64716795 20.5768821 124.85854609 20.59010315 129.07009888 C20.60166547 133.0297923 20.59362944 136.98897402 20.57052612 140.94861221 C20.565241 142.4010343 20.56674953 143.85349951 20.57557678 145.30590439 C20.58652168 147.28977664 20.57035697 149.2737431 20.55285645 151.25756836 C20.55134834 152.36736557 20.54984024 153.47716278 20.54828644 154.62059021 C19.92675082 158.29414769 18.65138569 159.97704488 16.04492188 162.59570312 C13.43530273 163.19506836 13.43530273 163.19506836 10.50976562 163.15429688 C9.45337891 163.14720703 8.39699219 163.14011719 7.30859375 163.1328125 C5.66213867 163.08350586 5.66213867 163.08350586 3.98242188 163.03320312 C2.88091797 163.02740234 1.77941406 163.02160156 0.64453125 163.015625 C-7.51204417 162.8910591 -7.51204417 162.8910591 -10.95507812 160.59570312 C-12.04800729 157.31691562 -12.08635362 154.90562272 -12.09552002 151.4533844 C-12.10123016 150.16767548 -12.10694031 148.88196655 -12.11282349 147.55729675 C-12.11406882 146.12942515 -12.11519392 144.70155343 -12.11621094 143.27368164 C-12.12083939 141.77235797 -12.12586409 140.27103548 -12.1312561 138.76971436 C-12.14437743 134.6891755 -12.15082426 130.60865309 -12.15526676 126.52809644 C-12.15819725 123.97972151 -12.16230196 121.4313511 -12.16677094 118.88297844 C-12.18044368 110.91238442 -12.19011206 102.94180069 -12.19397283 94.97119576 C-12.19845653 85.76486872 -12.21601975 76.55868994 -12.24497342 67.35240799 C-12.26657021 60.23896496 -12.27667599 53.12556371 -12.27801394 46.01208824 C-12.2790632 41.76196879 -12.28499664 37.51198875 -12.30283356 33.26190376 C-12.31928023 29.2654197 -12.32148646 25.26918035 -12.31269455 21.27267456 C-12.3119224 19.80530582 -12.31629023 18.3379241 -12.3261528 16.8705883 C-12.33881976 14.86876709 -12.33122297 12.86684809 -12.3225708 10.86500549 C-12.32403736 9.74431451 -12.32550392 8.62362352 -12.32701492 7.46897221 C-11.32438596 -0.27649102 -6.65010816 0.0584368 0 0 Z " fill="#FBFCFE" transform="translate(127.955078125,165.404296875)"/>
<path d="M0 0 C1.15371094 -0.01998047 2.30742187 -0.03996094 3.49609375 -0.06054688 C5.15318359 -0.05958008 5.15318359 -0.05958008 6.84375 -0.05859375 C7.85630859 -0.06044678 8.86886719 -0.0622998 9.91210938 -0.06420898 C12.5 0.4375 12.5 0.4375 14.13793373 2.07507324 C15.90033692 5.1318617 15.87741476 7.21534788 15.88095093 10.73803711 C15.8894104 12.03353485 15.89786987 13.32903259 15.90658569 14.66378784 C15.90075291 16.0974744 15.89460841 17.53115972 15.88818359 18.96484375 C15.89224912 20.47616963 15.89759089 21.98749254 15.90411377 23.49880981 C15.91779557 27.60209051 15.91248522 31.70514504 15.90297651 35.80842972 C15.89538438 40.10137799 15.90242428 44.39430683 15.90713501 48.68725586 C15.91259386 55.89668253 15.90539755 63.10601701 15.89111328 70.31542969 C15.87478649 78.65202312 15.88007491 86.98839645 15.8965925 95.32498455 C15.91020368 102.4809263 15.91212884 109.63680176 15.90427649 116.79275227 C15.89959794 121.06742778 15.8989801 125.34199982 15.90888596 129.6166687 C15.91754801 133.63535751 15.91154781 137.65376238 15.89420319 141.6724205 C15.89023425 143.14784142 15.89137937 144.62328622 15.89799118 146.09869766 C15.9061798 148.1114441 15.89409379 150.12424271 15.88095093 152.13696289 C15.87981985 153.2637294 15.87868877 154.39049591 15.87752342 155.55140686 C15.45662985 158.76905638 14.77959411 160.1584076 12.5 162.4375 C9.91210937 162.93920898 9.91210937 162.93920898 6.84375 162.93359375 C5.73902344 162.93423828 4.63429688 162.93488281 3.49609375 162.93554688 C2.34238281 162.91556641 1.18867188 162.89558594 0 162.875 C-1.15371094 162.88208984 -2.30742187 162.88917969 -3.49609375 162.89648438 C-11.9293456 162.83252155 -11.9293456 162.83252155 -14.13793373 161.30368042 C-16.11960971 158.58856664 -15.87764746 156.51500101 -15.88095093 153.17456055 C-15.8894104 151.862164 -15.89786987 150.54976746 -15.90658569 149.19760132 C-15.90075255 147.73980589 -15.89460803 146.28201169 -15.88818359 144.82421875 C-15.89224788 143.29171372 -15.89758895 141.75921162 -15.90411377 140.22671509 C-15.91781034 136.06146204 -15.91247914 131.89643149 -15.90297651 127.73117447 C-15.895392 123.37635947 -15.90242216 119.02156378 -15.90713501 114.66674805 C-15.9125961 107.35299248 -15.90539172 100.03932773 -15.89111328 92.72558594 C-15.87478607 84.26459443 -15.88007433 75.80381977 -15.8965925 67.34283352 C-15.91019733 60.0841686 -15.91213195 52.82556903 -15.90427649 45.56689548 C-15.89959444 41.22908027 -15.89898967 36.89136705 -15.90888596 32.55355835 C-15.91753881 28.47579144 -15.91156473 24.39830467 -15.89420319 20.32056808 C-15.89022931 18.82215211 -15.89138776 17.32371264 -15.89799118 15.82530594 C-15.90616038 13.78369222 -15.89411064 11.7420271 -15.88095093 9.70043945 C-15.87981985 8.55670364 -15.87868877 7.41296783 -15.87752342 6.23457336 C-15.5 3.4375 -15.5 3.4375 -14.13793373 1.57131958 C-10.29467575 -1.08908179 -4.49148552 -0.02760131 0 0 Z " fill="#FDFEFE" transform="translate(368.5,165.5625)"/>
<path d="M0 0 C0.87493103 -0.00563965 1.74986206 -0.0112793 2.65130615 -0.01708984 C4.0945224 -0.01101715 4.0945224 -0.01101715 5.56689453 -0.00482178 C7.08407074 -0.01007874 7.08407074 -0.01007874 8.63189697 -0.01544189 C11.9879027 -0.02427165 15.34369902 -0.01840562 18.69970703 -0.01165771 C21.02376343 -0.01300401 23.34781956 -0.01494423 25.671875 -0.01745605 C30.54771602 -0.02040901 35.42348387 -0.01610415 40.29931641 -0.0067749 C46.56104354 0.00461967 52.82259923 -0.00193888 59.08432007 -0.01391983 C63.88486023 -0.02113379 68.68535951 -0.01885263 73.48590088 -0.01366425 C75.79526795 -0.01232646 78.10463868 -0.01397993 80.41400146 -0.01862335 C83.63694142 -0.02368094 86.85960058 -0.01598907 90.08251953 -0.00482178 C91.0446637 -0.00887024 92.00680786 -0.0129187 92.99810791 -0.01708984 C94.31050446 -0.00863037 94.31050446 -0.00863037 95.64941406 0 C96.4119046 0.00075405 97.17439514 0.0015081 97.95999146 0.002285 C99.82470703 0.25396729 99.82470703 0.25396729 101.82470703 2.25396729 C102.02427673 4.81147181 102.1045753 7.25834869 102.09033203 9.81646729 C102.09224548 10.56355957 102.09415894 11.31065186 102.09613037 12.0803833 C102.09749201 13.66070899 102.09379703 15.24104587 102.08544922 16.8213501 C102.07474903 19.24445651 102.08534482 21.66682152 102.09814453 24.08990479 C102.09682293 25.62376059 102.09426053 27.15761594 102.09033203 28.69146729 C102.09438049 29.4185791 102.09842896 30.14569092 102.1026001 30.89483643 C102.05463064 36.02404368 102.05463064 36.02404368 99.82470703 38.25396729 C97.95999146 38.50844288 97.95999146 38.50844288 95.64941406 38.5146637 C94.77448303 38.5217485 93.899552 38.52883331 92.99810791 38.53613281 C92.03596375 38.5336554 91.07381958 38.53117798 90.08251953 38.52862549 C89.07106873 38.53373642 88.05961792 38.53884735 87.01751709 38.54411316 C83.66152085 38.55805651 80.30572885 38.55704897 76.94970703 38.55474854 C74.62565026 38.55863256 72.30159419 38.56296661 69.97753906 38.56773376 C65.10170187 38.57520598 60.22593708 38.57489723 55.35009766 38.56964111 C49.08831503 38.56384204 42.82682775 38.58078344 36.56509399 38.60398579 C31.7645493 38.61868517 26.96407639 38.61960007 22.16351318 38.61647606 C19.85414036 38.61699108 17.54476371 38.62226246 15.2354126 38.63228798 C12.01237532 38.644563 8.78992179 38.63791472 5.56689453 38.62628174 C4.60475037 38.63392548 3.6426062 38.64156921 2.65130615 38.64944458 C1.77637512 38.64243027 0.90144409 38.63541595 0 38.62818909 C-0.76249054 38.62835683 -1.52498108 38.62852457 -2.31057739 38.6286974 C-4.17529297 38.25396729 -4.17529297 38.25396729 -6.17529297 35.25396729 C-6.37053557 32.73552189 -6.45547867 30.33045731 -6.44091797 27.81256104 C-6.44283142 27.08907974 -6.44474487 26.36559845 -6.44671631 25.62019348 C-6.44807581 24.09292248 -6.44439571 22.56563984 -6.43603516 21.03839111 C-6.42531635 18.69657571 -6.43594588 16.3555247 -6.44873047 14.01373291 C-6.44740914 12.53000725 -6.44484729 11.04628208 -6.44091797 9.56256104 C-6.44496643 8.86046005 -6.44901489 8.15835907 -6.45318604 7.4349823 C-6.40046768 1.99240187 -5.58815949 0.00552631 0 0 Z " fill="#FDFDFE" transform="translate(202.17529296875,227.74603271484375)"/>
<path d="M0 0 C1.85625 0.02900391 1.85625 0.02900391 3.75 0.05859375 C5.60625 0.06052734 5.60625 0.06052734 7.5 0.0625 C11.01099903 0.53091453 11.66830537 0.79836566 13.75 3.49609375 C14.05155186 6.47250444 14.16995189 9.24045451 14.15405273 12.21850586 C14.16091599 13.10984726 14.16777924 14.00118866 14.17485046 14.91954041 C14.19317739 17.8710007 14.18927251 20.82193242 14.18359375 23.7734375 C14.18815282 25.82223179 14.19345757 27.87102455 14.19947815 29.91981506 C14.20842091 34.21638191 14.20597297 38.51276301 14.19604492 42.80932617 C14.18455559 48.31881694 14.20476047 53.82766678 14.23396206 59.33707333 C14.25229762 63.56897565 14.25203684 67.80072365 14.24632454 72.03265572 C14.24617099 74.06406109 14.25224289 76.09547671 14.26461601 78.12684441 C14.27947369 80.9664023 14.26888734 83.80476688 14.25170898 86.64428711 C14.26137695 87.48546082 14.27104492 88.32663452 14.28100586 89.19329834 C14.23490637 92.82751053 14.08623728 95.03493743 11.91419983 98.01393127 C8.93562984 100.053819 6.77198707 100.06267166 3.1875 100.05859375 C2.05183594 100.08050781 0.91617188 100.10242188 -0.25390625 100.125 C-3.25 99.49609375 -3.25 99.49609375 -4.91894531 97.32910156 C-6.42569179 94.12215254 -6.59720706 92.06455278 -6.54296875 88.5390625 C-6.53330078 87.42724609 -6.52363281 86.31542969 -6.51367188 85.16992188 C-6.48853516 84.01943359 -6.46339844 82.86894531 -6.4375 81.68359375 C-6.42396484 80.51376953 -6.41042969 79.34394531 -6.39648438 78.13867188 C-6.36120278 75.25734175 -6.3119028 72.37695471 -6.25 69.49609375 C-7.53003906 69.52445312 -8.81007813 69.5528125 -10.12890625 69.58203125 C-14.0078125 69.66796875 -14.0078125 69.66796875 -16.1875 68.12109375 C-19.38177945 63.23572519 -18.55137667 57.46004977 -18.60009766 51.80249023 C-18.61663807 50.39509523 -18.64390393 48.98778359 -18.68212891 47.58081055 C-18.73710174 45.5456208 -18.75879877 43.51239616 -18.7734375 41.4765625 C-18.79325684 40.25864014 -18.81307617 39.04071777 -18.83349609 37.78588867 C-18.08335424 33.5565324 -16.63520737 32.06356063 -13.25 29.49609375 C-9.4375 29.68359375 -9.4375 29.68359375 -6.25 30.49609375 C-6.26571045 29.72942383 -6.2814209 28.96275391 -6.29760742 28.17285156 C-6.35998974 24.69734073 -6.39900162 21.22194774 -6.4375 17.74609375 C-6.46263672 16.53953125 -6.48777344 15.33296875 -6.51367188 14.08984375 C-6.52817383 12.34960938 -6.52817383 12.34960938 -6.54296875 10.57421875 C-6.5586792 9.5059082 -6.57438965 8.43759766 -6.59057617 7.33691406 C-6.03020925 2.66277101 -4.68936917 0.71580515 0 0 Z " fill="#FAFBFD" transform="translate(94.25,197.50390625)"/>
<path d="M0 0 C1.2375 0.00128906 2.475 0.00257813 3.75 0.00390625 C7 0.4375 7 0.4375 8.68481445 1.57714844 C10.59641152 4.28113389 10.33922501 6.35252403 10.29296875 9.63671875 C10.28330078 10.84521484 10.27363281 12.05371094 10.26367188 13.29882812 C10.23853516 14.56146484 10.21339844 15.82410156 10.1875 17.125 C10.16719727 19.03635742 10.16719727 19.03635742 10.14648438 20.98632812 C10.11108199 24.13714057 10.0616979 27.28711045 10 30.4375 C10.94359375 30.25832031 11.8871875 30.07914063 12.859375 29.89453125 C16 29.4375 16 29.4375 18.25 30.125 C20.43214608 31.76160956 21.00810963 32.88997532 22 35.4375 C22.25878906 38.49023438 22.25878906 38.49023438 22.265625 42.03125 C22.26949219 43.94744141 22.26949219 43.94744141 22.2734375 45.90234375 C22.26715332 46.89596924 22.26715332 46.89596924 22.26074219 47.90966797 C22.25003459 49.93096943 22.26065396 51.95138225 22.2734375 53.97265625 C22.27085937 55.25011719 22.26828125 56.52757812 22.265625 57.84375 C22.26336914 59.01228516 22.26111328 60.18082031 22.25878906 61.38476562 C22.00903659 64.33090229 21.63464416 66.00353646 20 68.4375 C16.78548731 70.04475635 13.56387464 69.49498185 10 69.4375 C10.02094727 70.20416992 10.04189453 70.97083984 10.06347656 71.76074219 C10.14665158 75.2361946 10.19866575 78.71143763 10.25 82.1875 C10.30027344 83.99734375 10.30027344 83.99734375 10.3515625 85.84375 C10.36445313 87.00390625 10.37734375 88.1640625 10.390625 89.359375 C10.41157227 90.42768555 10.43251953 91.49599609 10.45410156 92.59667969 C9.88826437 96.13650851 8.81508914 97.28596531 6 99.4375 C3.08984375 99.8984375 3.08984375 99.8984375 -0.0625 99.8125 C-1.10535156 99.79960937 -2.14820313 99.78671875 -3.22265625 99.7734375 C-6 99.4375 -6 99.4375 -9 97.4375 C-10.28687374 93.57687877 -10.15567723 89.92254199 -10.16113281 85.89868164 C-10.16609772 85.02684738 -10.17106262 84.15501312 -10.17617798 83.25675964 C-10.19079294 80.37038385 -10.1975998 77.48406298 -10.203125 74.59765625 C-10.20887612 72.5937042 -10.21463386 70.58975218 -10.22039795 68.58580017 C-10.23090543 64.38345076 -10.23675005 60.18112047 -10.24023438 55.97875977 C-10.24572464 50.59046866 -10.26976514 45.20242954 -10.29820633 39.81421757 C-10.31681478 35.67499549 -10.32203731 31.5358344 -10.32357025 27.39657402 C-10.32660036 25.40982113 -10.33464089 23.42306941 -10.34775543 21.4363575 C-10.36478164 18.65927969 -10.36294432 15.8828215 -10.35644531 13.10571289 C-10.3656601 12.28324066 -10.37487488 11.46076843 -10.3843689 10.6133728 C-10.36019156 7.32077395 -10.22694356 4.86944406 -8.68084717 1.92674255 C-5.98840808 -0.45877764 -3.5072049 -0.05480008 0 0 Z " fill="#FBFCFD" transform="translate(402,197.5625)"/>
<path d="M0 0 C0.33 0 0.66 0 1 0 C1.33 37.29 1.66 74.58 2 113 C2.99 112.505 2.99 112.505 4 112 C4.33 101.44 4.66 90.88 5 80 C19.04690929 79.97744332 33.09380663 79.95908161 47.1407299 79.94818783 C53.66267442 79.94296042 60.18460594 79.93586532 66.70654297 79.92456055 C72.99589288 79.91372666 79.28523026 79.90772209 85.57458878 79.90512276 C87.9788546 79.90326942 90.3831197 79.89965054 92.78738022 79.89426994 C96.14456434 79.8870529 99.50169614 79.88600934 102.85888672 79.88647461 C103.86157593 79.88287933 104.86426514 79.87928406 105.89733887 79.87557983 C106.80881683 79.8769545 107.7202948 79.87832916 108.65939331 79.87974548 C109.45397886 79.87882369 110.24856441 79.8779019 111.06722832 79.87695217 C113 80 113 80 115 81 C115 92.88 115 104.76 115 117 C114.67 117 114.34 117 114 117 C113.96241577 115.46291382 113.96241577 115.46291382 113.92407227 113.89477539 C113.83015516 110.10590324 113.72989683 106.31722119 113.62768555 102.52856445 C113.58427703 100.88635697 113.54260642 99.24410261 113.50268555 97.60180664 C113.4451256 95.24611255 113.38139108 92.89065572 113.31640625 90.53515625 C113.29969376 89.79660904 113.28298126 89.05806183 113.26576233 88.2971344 C113.46451987 84.85699373 113.46451987 84.85699373 112 82 C110.6489268 81.90253689 109.29281627 81.87368421 107.93823242 81.87301636 C107.0632309 81.87019653 106.18822937 81.86737671 105.28671265 81.86447144 C104.31940216 81.86649567 103.35209167 81.8685199 102.35546875 81.87060547 C101.34255768 81.86885315 100.32964661 81.86710083 99.28604126 81.86529541 C95.91984369 81.86087478 92.55369816 81.86381563 89.1875 81.8671875 C86.85961904 81.86651452 84.53173814 81.86554455 82.20385742 81.86428833 C77.31786431 81.86281107 72.43188944 81.86496682 67.54589844 81.86962891 C61.26727344 81.8753262 54.98869118 81.87204735 48.71006775 81.86605644 C43.90099767 81.86245159 39.09193781 81.86358907 34.28286743 81.86618423 C31.96709183 81.86685371 29.65131531 81.86602436 27.33554077 81.86370468 C24.10517909 81.86117939 20.87488767 81.86501701 17.64453125 81.87060547 C16.19356552 81.86756912 16.19356552 81.86756912 14.71328735 81.86447144 C13.83828583 81.86729126 12.9632843 81.87011108 12.06176758 81.87301636 C11.29705643 81.87339338 10.53234528 81.87377041 9.74446106 81.87415886 C7.97102957 81.81083798 7.97102957 81.81083798 7 83 C6.89911424 85.41326348 6.86027941 87.79726566 6.8671875 90.2109375 C6.86575241 91.29684677 6.86575241 91.29684677 6.86428833 92.4046936 C6.86360647 93.93971849 6.86546114 95.47474624 6.86962891 97.00976562 C6.87496171 99.35813916 6.86969216 101.70632008 6.86328125 104.0546875 C6.86394233 105.54427126 6.86522412 107.03385489 6.8671875 108.5234375 C6.86516327 109.22665131 6.86313904 109.92986511 6.86105347 110.65438843 C6.87572956 113.71437768 7.02425562 116.07276687 8 119 C6.02 118.34 4.04 117.68 2 117 C1.67 143.73 1.34 170.46 1 198 C0.34 198.33 -0.32 198.66 -1 199 C-1.02332583 173.20127874 -1.04097762 147.40255905 -1.05181217 121.60382938 C-1.0569758 109.62593802 -1.06401977 97.64805319 -1.07543945 85.67016602 C-1.08538424 75.23431517 -1.09185294 64.79846907 -1.09408849 54.36261362 C-1.09539595 48.83324405 -1.098484 43.30388802 -1.10573006 37.77452278 C-1.11248705 32.57654127 -1.11461762 27.37857897 -1.11310768 22.18059349 C-1.11338415 20.26690695 -1.11539117 18.35321981 -1.11920547 16.43953705 C-1.12413771 13.83870069 -1.12300004 11.23793807 -1.12025452 8.63710022 C-1.12316736 7.8696053 -1.1260802 7.10211038 -1.12908131 6.31135803 C-1.11412121 1.11412121 -1.11412121 1.11412121 0 0 Z " fill="#4859BE" transform="translate(190,147)"/>
<path d="M0 0 C0.33 0 0.66 0 1 0 C1.00238835 1.01675182 1.00477671 2.03350365 1.00723743 3.08106613 C1.06598657 27.80102398 1.14184088 52.520884 1.23571491 77.2407341 C1.28071382 89.19498565 1.32011901 101.14920714 1.34643555 113.10351562 C1.36938248 123.52077404 1.40274339 133.93793764 1.44870156 144.3551209 C1.4726784 149.87285736 1.49137791 155.39049965 1.49761391 160.90828705 C1.5036446 166.09899591 1.52357123 171.2894637 1.55427551 176.48008347 C1.56308815 178.38765415 1.56677168 180.2952563 1.56500816 182.20284653 C1.56336304 184.8028908 1.57998909 187.40219344 1.60127258 190.00213623 C1.59642501 190.76089263 1.59157743 191.51964902 1.58658296 192.30139804 C1.64314364 196.47428351 2.02372193 198.97317035 5 202 C4.505 202.99 4.505 202.99 4 204 C3.401875 203.690625 2.80375 203.38125 2.1875 203.0625 C-0.08956772 201.89790296 -0.08956772 201.89790296 -3 201 C-2.67482171 200.50325114 -2.34964342 200.00650229 -2.01461124 199.49470043 C-0.61021283 196.04160117 -0.73440755 192.75249952 -0.76622009 189.08479309 C-0.76471517 187.8801605 -0.76471517 187.8801605 -0.76317984 186.65119189 C-0.76222638 183.95722283 -0.77557594 181.26351399 -0.78881836 178.56958008 C-0.79101926 176.63960346 -0.79232499 174.70962564 -0.7928009 172.77964783 C-0.79573569 168.62281273 -0.80498761 164.46605619 -0.81910515 160.30924416 C-0.8413386 153.74308484 -0.84945554 147.17695482 -0.85560608 140.61076355 C-0.86699059 130.23164559 -0.887722 119.85257092 -0.91250378 109.47347707 C-0.95684099 90.8696249 -0.98996767 72.26575727 -1.01274782 53.66186637 C-1.02118078 47.12735925 -1.03523095 40.59289452 -1.05372036 34.05840838 C-1.06432462 30.00381437 -1.07093309 25.9492208 -1.07652092 21.89461708 C-1.08000643 20.00672503 -1.08523658 18.11883532 -1.09228897 16.23095322 C-1.10166619 13.66537151 -1.10500735 11.09985247 -1.10679626 8.53425598 C-1.11107335 7.77727144 -1.11535043 7.02028689 -1.11975712 6.24036342 C-1.11406443 1.11406443 -1.11406443 1.11406443 0 0 Z " fill="#4659BD" transform="translate(156,148)"/>
<path d="M0 0 C0.97646484 0.01611328 1.95292969 0.03222656 2.95898438 0.04882812 C3.96638672 0.09072266 4.97378906 0.13261719 6.01171875 0.17578125 C7.55182617 0.20961914 7.55182617 0.20961914 9.12304688 0.24414062 C11.64993665 0.3029055 14.1738213 0.38500276 16.69921875 0.48828125 C16.69921875 0.81828125 16.69921875 1.14828125 16.69921875 1.48828125 C15.38566406 1.52566406 14.07210937 1.56304687 12.71875 1.6015625 C10.98304511 1.66723782 9.24736928 1.73368462 7.51171875 1.80078125 C6.64740234 1.82333984 5.78308594 1.84589844 4.89257812 1.86914062 C-0.40456539 2.09239188 -4.3650674 2.5525674 -8.30078125 6.48828125 C-8.40978783 8.50022672 -8.44768925 10.51603452 -8.45899963 12.53089905 C-8.46878845 13.84488174 -8.47857727 15.15886444 -8.48866272 16.51266479 C-8.4945677 17.98248255 -8.50037809 19.45230068 -8.50610352 20.92211914 C-8.51567652 22.45919563 -8.52568624 23.99626945 -8.53610229 25.53334045 C-8.56322014 29.71908117 -8.58419232 33.90483324 -8.60410428 38.0906136 C-8.62592156 42.46020549 -8.65333101 46.8297621 -8.68016052 51.19932556 C-8.73014518 59.47952615 -8.77506251 67.75974625 -8.81818289 76.03998512 C-8.86750603 85.46427789 -8.92244236 94.88853527 -8.97786248 104.31279385 C-9.09177111 123.70459016 -9.19859071 143.09641983 -9.30078125 162.48828125 C-9.63078125 162.48828125 -9.96078125 162.48828125 -10.30078125 162.48828125 C-10.41755595 142.10444254 -10.50574068 121.72067166 -10.55984211 101.33656788 C-10.58562948 91.87196996 -10.62079015 82.4075798 -10.67797852 72.94311523 C-10.72779722 64.69437465 -10.76006839 56.44578453 -10.77122372 48.19689769 C-10.77774512 43.82863948 -10.793083 39.46081173 -10.82943153 35.09269142 C-10.86336701 30.98124936 -10.87383933 26.8704151 -10.86631966 22.75884628 C-10.86769532 21.24994669 -10.87764299 19.7410268 -10.89680862 18.23224831 C-10.92171147 16.1707136 -10.91570041 14.11146934 -10.90205383 12.04988098 C-10.9066628 10.89671796 -10.91127176 9.74355494 -10.91602039 8.55544758 C-9.72776334 2.63160144 -5.87943493 -0.1719133 0 0 Z " fill="#F1F8FF" transform="translate(167.30078125,142.51171875)"/>
<path d="M0 0 C14.04690929 -0.02255668 28.09380663 -0.04091839 42.1407299 -0.05181217 C48.66267442 -0.05703958 55.18460594 -0.06413468 61.70654297 -0.07543945 C67.99589288 -0.08627334 74.28523026 -0.09227791 80.57458878 -0.09487724 C82.9788546 -0.09673058 85.3831197 -0.10034946 87.78738022 -0.10573006 C91.14456434 -0.1129471 94.50169614 -0.11399066 97.85888672 -0.11352539 C98.86157593 -0.11712067 99.86426514 -0.12071594 100.89733887 -0.12442017 C101.80881683 -0.1230455 102.7202948 -0.12167084 103.65939331 -0.12025452 C104.45397886 -0.12117631 105.24856441 -0.1220981 106.06722832 -0.12304783 C108 0 108 0 110 1 C110 12.88 110 24.76 110 37 C109.67 37 109.34 37 109 37 C108.97494385 35.97527588 108.9498877 34.95055176 108.92407227 33.89477539 C108.83015516 30.10590324 108.72989683 26.31722119 108.62768555 22.52856445 C108.58427703 20.88635697 108.54260642 19.24410261 108.50268555 17.60180664 C108.4451256 15.24611255 108.38139108 12.89065572 108.31640625 10.53515625 C108.29969376 9.79660904 108.28298126 9.05806183 108.26576233 8.2971344 C108.46451987 4.85699373 108.46451987 4.85699373 107 2 C105.6489268 1.90253689 104.29281627 1.87368421 102.93823242 1.87301636 C102.0632309 1.87019653 101.18822937 1.86737671 100.28671265 1.86447144 C99.31940216 1.86649567 98.35209167 1.8685199 97.35546875 1.87060547 C96.34255768 1.86885315 95.32964661 1.86710083 94.28604126 1.86529541 C90.91984369 1.86087478 87.55369816 1.86381563 84.1875 1.8671875 C81.85961904 1.86651452 79.53173814 1.86554455 77.20385742 1.86428833 C72.31786431 1.86281107 67.43188944 1.86496682 62.54589844 1.86962891 C56.26727344 1.8753262 49.98869118 1.87204735 43.71006775 1.86605644 C38.90099767 1.86245159 34.09193781 1.86358907 29.28286743 1.86618423 C26.96709183 1.86685371 24.65131531 1.86602436 22.33554077 1.86370468 C19.10517909 1.86117939 15.87488767 1.86501701 12.64453125 1.87060547 C11.19356552 1.86756912 11.19356552 1.86756912 9.71328735 1.86447144 C8.83828583 1.86729126 7.9632843 1.87011108 7.06176758 1.87301636 C6.29705643 1.87339338 5.53234528 1.87377041 4.74446106 1.87415886 C2.97102957 1.81083798 2.97102957 1.81083798 2 3 C1.84019563 5.44608998 1.74070553 7.86731058 1.68359375 10.31640625 C1.66281265 11.04746078 1.64203156 11.77851532 1.62062073 12.53172302 C1.55504976 14.87521656 1.49620568 17.21882539 1.4375 19.5625 C1.39432192 21.14779855 1.35070787 22.73308529 1.30664062 24.31835938 C1.1993608 28.21212037 1.0981151 32.10599772 1 36 C0.67 36 0.34 36 0 36 C0 24.12 0 12.24 0 0 Z " fill="#4C5FBF" transform="translate(195,227)"/>
<path d="M0 0 C-0.33 31.68 -0.66 63.36 -1 96 C-1.33 96 -1.66 96 -2 96 C-2.00808685 94.85185822 -2.01617371 93.70371643 -2.02450562 92.52078247 C-2.1018691 81.71965466 -2.18958326 70.91865433 -2.28752708 60.11769295 C-2.33755009 54.5643274 -2.38387945 49.01098143 -2.421875 43.45751953 C-2.45865212 38.10174637 -2.50499109 32.74613473 -2.55806351 27.39049911 C-2.57664785 25.34352313 -2.59174074 23.29651248 -2.60334396 21.24948502 C-2.62013751 18.39027486 -2.64915532 15.53143791 -2.68115234 12.67236328 C-2.68331253 11.81928589 -2.68547272 10.9662085 -2.68769836 10.08728027 C-2.55851239 5.56885246 -2.55851239 5.56885246 -5 2 C-7.56916657 1.69400937 -10.04758384 1.48912913 -12.625 1.375 C-13.33140625 1.33632812 -14.0378125 1.29765625 -14.765625 1.2578125 C-16.50998524 1.16352276 -18.25495691 1.08067109 -20 1 C-20 0.67 -20 0.34 -20 0 C-17.22949974 -0.1946838 -14.45886998 -0.38102792 -11.6875 -0.5625 C-10.90181641 -0.61857422 -10.11613281 -0.67464844 -9.30664062 -0.73242188 C-8.1706543 -0.80493164 -8.1706543 -0.80493164 -7.01171875 -0.87890625 C-6.31522217 -0.9260376 -5.61872559 -0.97316895 -4.90112305 -1.02172852 C-3 -1 -3 -1 0 0 Z " fill="#5367C2" transform="translate(110,197)"/>
<path d="M0 0 C1.32 0 2.64 0 4 0 C4 0.66 4 1.32 4 2 C8.455 1.505 8.455 1.505 13 1 C13 2.65 13 4.3 13 6 C13.99 6.33 14.98 6.66 16 7 C14.0625 7.5625 14.0625 7.5625 12 8 C11.67 7.67 11.34 7.34 11 7 C10.98018066 7.91813477 10.96036133 8.83626953 10.93994141 9.78222656 C10.86173045 13.19671825 10.77503416 16.61077702 10.68261719 20.02490234 C10.64439334 21.50105536 10.60952897 22.97729943 10.578125 24.45361328 C10.53233014 26.57878094 10.47436163 28.70332542 10.4140625 30.828125 C10.3826416 32.1059082 10.3512207 33.38369141 10.31884766 34.70019531 C10.02653615 37.72537324 9.59418511 39.46049109 8 42 C7.34 41.67 6.68 41.34 6 41 C6.32524658 40.47599609 6.65049316 39.95199219 6.9855957 39.41210938 C8.29841744 36.29040571 8.24236684 33.78997296 8.23046875 30.40625 C8.22853516 29.12878906 8.22660156 27.85132813 8.22460938 26.53515625 C8.21840576 25.87273926 8.21220215 25.21032227 8.20581055 24.52783203 C8.18756057 22.50670746 8.18530105 20.48604214 8.18554688 18.46484375 C8.19470141 11.16541727 8.19470141 11.16541727 7 4 C4.36 3.34 1.72 2.68 -1 2 C-0.67 1.34 -0.34 0.68 0 0 Z " fill="#495CC9" transform="translate(415,225)"/>
<path d="M0 0 C0.97646484 0.01611328 1.95292969 0.03222656 2.95898438 0.04882812 C3.96638672 0.09072266 4.97378906 0.13261719 6.01171875 0.17578125 C7.55182617 0.20961914 7.55182617 0.20961914 9.12304688 0.24414062 C11.64993665 0.3029055 14.1738213 0.38500276 16.69921875 0.48828125 C16.69921875 0.81828125 16.69921875 1.14828125 16.69921875 1.48828125 C15.38566406 1.52566406 14.07210937 1.56304687 12.71875 1.6015625 C10.98304511 1.66723782 9.24736928 1.73368462 7.51171875 1.80078125 C6.64740234 1.82333984 5.78308594 1.84589844 4.89257812 1.86914062 C-0.40456539 2.09239188 -4.3650674 2.5525674 -8.30078125 6.48828125 C-8.45920775 8.55912845 -8.55202547 10.63506154 -8.6171875 12.7109375 C-8.65908203 13.97099609 -8.70097656 15.23105469 -8.74414062 16.52929688 C-8.78395721 17.86978861 -8.82366939 19.21028345 -8.86328125 20.55078125 C-8.90646167 21.89519648 -8.95007581 23.23959785 -8.99414062 24.58398438 C-9.10063483 27.88530465 -9.20264585 31.18670361 -9.30078125 34.48828125 C-9.63078125 34.48828125 -9.96078125 34.48828125 -10.30078125 34.48828125 C-10.42484132 30.45003059 -10.5153317 26.41252487 -10.57543945 22.37280273 C-10.60050742 21.00021023 -10.63457207 19.62775023 -10.67797852 18.25561523 C-10.73895656 16.27777429 -10.76439134 14.29893941 -10.7890625 12.3203125 C-10.81524658 11.13155518 -10.84143066 9.94279785 -10.8684082 8.71801758 C-9.79489856 2.60986312 -6.06412371 -0.17731356 0 0 Z " fill="#E2EEFE" transform="translate(167.30078125,142.51171875)"/>
<path d="M0 0 C1.12775345 0.00212242 1.12775345 0.00212242 2.27828979 0.00428772 C4.6829626 0.0098916 7.08754277 0.02244468 9.4921875 0.03515625 C11.12109241 0.04017075 12.74999877 0.04473375 14.37890625 0.04882812 C18.37503577 0.05986228 22.37109592 0.07712946 26.3671875 0.09765625 C26.3671875 0.42765625 26.3671875 0.75765625 26.3671875 1.09765625 C18.8881502 2.22140049 11.41954495 2.42606387 3.8671875 2.66015625 C2.5678125 2.70333984 1.2684375 2.74652344 -0.0703125 2.79101562 C-3.25772095 2.89648135 -6.44519948 2.99860073 -9.6328125 3.09765625 C-9.6328125 2.43765625 -9.6328125 1.77765625 -9.6328125 1.09765625 C-6.56686656 -0.43531672 -3.36169397 -0.0236583 0 0 Z " fill="#4358B8" transform="translate(256.6328125,466.90234375)"/>
<path d="M0 0 C12.87 0.495 12.87 0.495 26 1 C26.33 1.66 26.66 2.32 27 3 C13.635 3.495 13.635 3.495 0 4 C0 2.68 0 1.36 0 0 Z " fill="#6272D4" transform="translate(354,163)"/>
<path d="M0 0 C0.70125 0.495 1.4025 0.99 2.125 1.5 C5.37119719 3.1936681 7.39340156 3.25162315 11 3 C11 4.32 11 5.64 11 7 C11.31151288 9.33634657 11.64159778 11.67038557 12 14 C10.85807217 12.85807217 9.71677615 11.71550762 8.578125 10.5703125 C7.43198823 9.42984968 6.27413185 8.30112694 5.109375 7.1796875 C4.47515625 6.56351562 3.8409375 5.94734375 3.1875 5.3125 C2.58292969 4.73113281 1.97835937 4.14976562 1.35546875 3.55078125 C0 2 0 2 0 0 Z " fill="#465ACC" transform="translate(83,392)"/>
<path d="M0 0 C6.93 0.33 13.86 0.66 21 1 C21.33 1.66 21.66 2.32 22 3 C11.11 3.495 11.11 3.495 0 4 C0 2.68 0 1.36 0 0 Z " fill="#4558C3" transform="translate(316,140)"/>
<path d="M0 0 C0.33 0 0.66 0 1 0 C0.59128562 8.68518048 -1.61864208 16.69293749 -4 25 C-4.33 25 -4.66 25 -5 25 C-5 23.02 -5 21.04 -5 19 C-5.66 18.67 -6.32 18.34 -7 18 C-6.01 17.67 -5.02 17.34 -4 17 C-4.33 15.68 -4.66 14.36 -5 13 C-4.01 13 -3.02 13 -2 13 C-1.855625 11.783125 -1.71125 10.56625 -1.5625 9.3125 C-1.17219047 6.17329623 -0.67648144 3.0924866 0 0 Z " fill="#4151B6" transform="translate(465,291)"/>
<path d="M0 0 C2.60608273 2.5162178 4.89381685 5.05134359 7 8 C6.67 8.66 6.34 9.32 6 10 C2.88742431 10 0.89234315 9.82638376 -2 9 C-2 7.35 -2 5.7 -2 4 C-1.01 3.67 -0.02 3.34 1 3 C0.67 2.01 0.34 1.02 0 0 Z " fill="#4359CB" transform="translate(424,115)"/>
<path d="M0 0 C0 3 0 3 -1 5 C-5.62 5 -10.24 5 -15 5 C-15 4.34 -15 3.68 -15 3 C-13.75283203 2.92652344 -13.75283203 2.92652344 -12.48046875 2.8515625 C-11.39378906 2.77679688 -10.30710937 2.70203125 -9.1875 2.625 C-8.10855469 2.55539062 -7.02960938 2.48578125 -5.91796875 2.4140625 C-2.81373814 2.18804267 -2.81373814 2.18804267 0 0 Z " fill="#4A5EC6" transform="translate(107,294)"/>
<path d="M0 0 C0 1.32 0 2.64 0 4 C-3.875 3.125 -3.875 3.125 -5 2 C-7.52596259 1.76346477 -10.03107207 1.57826308 -12.5625 1.4375 C-13.27341797 1.39431641 -13.98433594 1.35113281 -14.71679688 1.30664062 C-16.47761912 1.20028223 -18.2387832 1.09961154 -20 1 C-20 0.67 -20 0.34 -20 0 C-17.22949974 -0.1946838 -14.45886998 -0.38102792 -11.6875 -0.5625 C-10.90181641 -0.61857422 -10.11613281 -0.67464844 -9.30664062 -0.73242188 C-8.1706543 -0.80493164 -8.1706543 -0.80493164 -7.01171875 -0.87890625 C-6.31522217 -0.9260376 -5.61872559 -0.97316895 -4.90112305 -1.02172852 C-3 -1 -3 -1 0 0 Z " fill="#4E5ECC" transform="translate(110,197)"/>
<path d="M0 0 C0 3.72820818 -0.84132013 4.97784819 -3 8 C-4.92395293 9.79666851 -6.9177066 11.38043847 -9 13 C-9 8.86218946 -7.28490393 7.79080004 -4.5 4.8125 C-3.6646875 3.91144531 -2.829375 3.01039062 -1.96875 2.08203125 C-0.99421875 1.05142578 -0.99421875 1.05142578 0 0 Z " fill="#4455BB" transform="translate(84,105)"/>
<path d="M0 0 C2.97246802 2.54782974 4.41535288 5.45340883 6 9 C6 9.66 6 10.32 6 11 C3.5625 10.1875 3.5625 10.1875 1 9 C-0.06546953 5.8035914 -0.07427838 3.34252724 0 0 Z " fill="#4757C1" transform="translate(442,142)"/>
<path d="M0 0 C0.66 0.33 1.32 0.66 2 1 C3.4465242 1.15067214 4.8987934 1.24861036 6.3515625 1.31640625 C7.62773437 1.37924805 7.62773437 1.37924805 8.9296875 1.44335938 C9.81914062 1.48267578 10.70859375 1.52199219 11.625 1.5625 C12.97078125 1.62727539 12.97078125 1.62727539 14.34375 1.69335938 C16.56234283 1.79956861 18.7810488 1.90161194 21 2 C21 2.33 21 2.66 21 3 C17.37506666 3.05787784 13.75025143 3.0935542 10.125 3.125 C9.09246094 3.14175781 8.05992187 3.15851563 6.99609375 3.17578125 C6.00996094 3.18222656 5.02382813 3.18867188 4.0078125 3.1953125 C2.64100342 3.21102295 2.64100342 3.21102295 1.24658203 3.22705078 C-1 3 -1 3 -3 1 C-2.01 0.67 -1.02 0.34 0 0 Z " fill="#DDE8FE" transform="translate(317,348)"/>
<path d="M0 0 C0 3.98919362 -1.17179136 6.46966608 -3 10 C-5.6875 11.9375 -5.6875 11.9375 -8 13 C-6.53181332 9.89257577 -4.79975 7.09528261 -2.875 4.25 C-2.33617188 3.45078125 -1.79734375 2.6515625 -1.2421875 1.828125 C-0.62730469 0.92320313 -0.62730469 0.92320313 0 0 Z " fill="#4453B9" transform="translate(69,124)"/>
<path d="M0 0 C0.86625 0.5259375 0.86625 0.5259375 1.75 1.0625 C4.35801776 2.14917407 5.39417629 1.93065133 8 1 C8.66 1.99 9.32 2.98 10 4 C9.34 4.66 8.68 5.32 8 6 C4.08597051 4.73058503 2.20927127 3.48832306 0 0 Z " fill="#435ACE" transform="translate(102,412)"/>
<path d="M0 0 C0.66 0 1.32 0 2 0 C2.33 1.98 2.66 3.96 3 6 C2.34 6 1.68 6 1 6 C0.67 6.99 0.34 7.98 0 9 C-2.125 4.375 -2.125 4.375 -1 1 C-0.67 0.67 -0.34 0.34 0 0 Z " fill="#465ACA" transform="translate(44,320)"/>
<path d="M0 0 C3.23861303 1.44424635 5.61969163 3.25772247 8.25 5.625 C8.95640625 6.25664063 9.6628125 6.88828125 10.390625 7.5390625 C10.92171875 8.02117187 11.4528125 8.50328125 12 9 C8.66843858 9 6.93971885 8.54335239 4 7 C2.40988879 4.72841256 1.23564636 2.47129272 0 0 Z " fill="#4151B7" transform="translate(382,74)"/>
<path d="M0 0 C3.63 0 7.26 0 11 0 C11 0.33 11 0.66 11 1 C10.39671875 1.13277344 9.7934375 1.26554688 9.171875 1.40234375 C8.37265625 1.57894531 7.5734375 1.75554687 6.75 1.9375 C5.96109375 2.11152344 5.1721875 2.28554687 4.359375 2.46484375 C2.23121297 2.947556 0.11467158 3.46163178 -2 4 C-1.34 2.68 -0.68 1.36 0 0 Z " fill="#EBF7FE" transform="translate(395,198)"/>
<path d="M0 0 C0.33 0.66 0.66 1.32 1 2 C1.99 2.33 2.98 2.66 4 3 C3.01 3.99 2.02 4.98 1 6 C0.01 5.67 -0.98 5.34 -2 5 C-1.125 1.125 -1.125 1.125 0 0 Z " fill="#4053D1" transform="translate(404,401)"/>
<path d="M0 0 C4.92307692 4.18461538 4.92307692 4.18461538 5.3125 8.3125 C5.209375 9.199375 5.10625 10.08625 5 11 C0 4.63636364 0 4.63636364 0 0 Z " fill="#4556BA" transform="translate(48,336)"/>
<path d="M0 0 C2.1519437 3.22791555 2.20086443 4.28400809 2 8 C0.68 7.34 -0.64 6.68 -2 6 C-2 4.68 -2 3.36 -2 2 C-1.34 2 -0.68 2 0 2 C0 1.34 0 0.68 0 0 Z " fill="#4D62D0" transform="translate(340,138)"/>
<path d="M0 0 C3.08089673 2.77280706 4.68775452 5.06326356 6 9 C2.66476748 7.61990379 0.81392049 6.15049348 -1 3 C-0.67 2.01 -0.34 1.02 0 0 Z " fill="#4556B9" transform="translate(433,128)"/>
<path d="M0 0 C0.66 0.66 1.32 1.32 2 2 C0.35 3.65 -1.3 5.3 -3 7 C-3.99 6.67 -4.98 6.34 -6 6 C-5.67 5.34 -5.34 4.68 -5 4 C-4.34 4.33 -3.68 4.66 -3 5 C-2.67 4.01 -2.34 3.02 -2 2 C-1.34 1.34 -0.68 0.68 0 0 Z " fill="#4053BC" transform="translate(397,410)"/>
<path d="M0 0 C2.31 0.66 4.62 1.32 7 2 C6.67 3.65 6.34 5.3 6 7 C3.95880212 5.38405168 1.95927063 3.7143618 0 2 C0 1.34 0 0.68 0 0 Z " fill="#4155BF" transform="translate(73,380)"/>
<path d="M0 0 C1.32 0.99 2.64 1.98 4 3 C3.67 4.98 3.34 6.96 3 9 C0.23776722 6.23776722 0.42143709 3.79293383 0 0 Z " fill="#4159BE" transform="translate(39,312)"/>
<path d="M0 0 C4.875 4.75 4.875 4.75 6 7 C4.35 7 2.7 7 1 7 C0 4 0 4 0 0 Z " fill="#3E5AC1" transform="translate(418,108)"/>
<path d="M0 0 C-5.2734375 3.22265625 -5.2734375 3.22265625 -7 4 C-7.66 3.67 -8.32 3.34 -9 3 C-9 2.34 -9 1.68 -9 1 C-2.25 -1.125 -2.25 -1.125 0 0 Z " fill="#4154B9" transform="translate(360,441)"/>
<path d="M0 0 C1.65 0 3.3 0 5 0 C5 0.66 5 1.32 5 2 C5.66 2 6.32 2 7 2 C6.67 3.32 6.34 4.64 6 6 C3.97945196 4.35830472 1.97956942 2.69088222 0 1 C0 0.67 0 0.34 0 0 Z " fill="#4556C4" transform="translate(95,406)"/>
<path d="M0 0 C0.78375 0.04125 1.5675 0.0825 2.375 0.125 C1.611875 0.7025 0.84875 1.28 0.0625 1.875 C-2.28700917 3.84203093 -3.91823505 5.60976744 -5.625 8.125 C-4.59375 0.21875 -4.59375 0.21875 0 0 Z " fill="#E7EEFD" transform="translate(162.625,143.875)"/>
<path d="M0 0 C-2 2 -2 2 -5.625 2.125 C-6.73875 2.08375 -7.8525 2.0425 -9 2 C-9 1.34 -9 0.68 -9 0 C-5.93109813 -1.53445094 -3.29905734 -0.54984289 0 0 Z " fill="#3B50C5" transform="translate(256,468)"/>
<path d="M0 0 C2.31 0.33 4.62 0.66 7 1 C5.68 2.32 4.36 3.64 3 5 C2.34 4.67 1.68 4.34 1 4 C0.375 1.9375 0.375 1.9375 0 0 Z " fill="#4455C2" transform="translate(373,426)"/>
<path d="M0 0 C6.64615385 1.47692308 6.64615385 1.47692308 8.4375 4.125 C8.7159375 5.053125 8.7159375 5.053125 9 6 C5.88802644 4.50164236 2.91164984 2.86022073 0 1 C0 0.67 0 0.34 0 0 Z " fill="#4353B6" transform="translate(117,425)"/>
<path d="M0 0 C2.475 0.495 2.475 0.495 5 1 C6.125 4.75 6.125 4.75 5 7 C3.35 4.69 1.7 2.38 0 0 Z " fill="#4455BF" transform="translate(89,399)"/>
<path d="M0 0 C0.66 0.33 1.32 0.66 2 1 C1.01 3.97 0.02 6.94 -1 10 C-1.33 10 -1.66 10 -2 10 C-2 8.02 -2 6.04 -2 4 C-1.34 4 -0.68 4 0 4 C0 2.68 0 1.36 0 0 Z " fill="#4659C5" transform="translate(451,333)"/>
<path d="M0 0 C2.31 0 4.62 0 7 0 C6.4225 0.268125 5.845 0.53625 5.25 0.8125 C2.9674132 2.01719859 1.0262058 3.40798115 -1 5 C-0.67 3.35 -0.34 1.7 0 0 Z " fill="#F1FBFF" transform="translate(198,228)"/>
</svg>
